<?xml version="1.0" standalone="no"?><!DOCTYPE svg PUBLIC "-//W3C//DTD SVG 1.1//EN" "http://www.w3.org/Graphics/SVG/1.1/DTD/svg11.dtd"><svg t="1710121848900" class="icon" viewBox="0 0 1036 1024" version="1.1" xmlns="http://www.w3.org/2000/svg" p-id="5986" xmlns:xlink="http://www.w3.org/1999/xlink" width="202.34375" height="200"><path d="M938.746762 69.161909l-45.29294-16.324979a67.263911 67.263911 0 1 0-20.006974 64.317916l42.469944 15.465979c28.720962 10.432986 53.515929 49.097935 53.51593 83.46589v598.869211c0 33.999955-24.548968 72.663904-53.639929 82.728891l-38.29595 13.501982a67.263911 67.263911 0 1 0 14.115982 66.649912l46.396938-16.447978c55.602927-19.515974 98.195871-83.71089 98.195871-146.310808V216.209715c0-62.353918-42.959943-126.917833-98.195871-147.292806z m-716.580055 819.808919a66.895912 66.895912 0 0 0-52.165931 24.547968l-48.483936-16.079979a89.111883 89.111883 0 0 1-54.252929-74.995901V208.722725a89.971881 89.971881 0 0 1 54.252929-76.1019l51.919931-18.656975a67.631911 67.631911 0 1 0-15.464979-65.913913L98.194871 69.284909A157.357793 157.357793 0 0 0 0 208.722725v613.719191a156.252794 156.252794 0 0 0 99.299869 138.332817l60.266921 21.234972a67.509911 67.509911 0 1 0 62.599917-93.039877z" fill="#1296db" p-id="5987"></path><path d="M426.289438 572.413245l86.779886-205.105729 91.935878 205.105729z m282.311628 230.758696h119.798842L560.817261 210.317723l-98.194871 1.104998-251.625668 592.11722 118.079844-1.349999 51.429932-122.007839H652.999139l55.111927 122.743838z" fill="#1296db" p-id="5988"></path></svg>